Coordinates
version=1
nRows=34
nColumns=38
inDegrees=no

Units are S.I. units (second, meters, Newtons, ...)
If the header above contains a line with 'inDegrees', this indicates whether rotational values are in degrees (yes) or radians (no).

endheader
time	pelvis_tilt	pelvis_list	pelvis_rotation	pelvis_tx	pelvis_ty	pelvis_tz	hip_flexion_r	hip_adduction_r	hip_rotation_r	knee_angle_r	ankle_angle_r	subtalar_angle_r	mtp_angle_r	hip_flexion_l	hip_adduction_l	hip_rotation_l	knee_angle_l	ankle_angle_l	subtalar_angle_l	mtp_angle_l	lumbar_extension	lumbar_bending	lumbar_rotation	arm_flex_r	arm_add_r	arm_rot_r	elbow_flex_r	pro_sup_r	wrist_flex_r	wrist_dev_r	arm_flex_l	arm_add_l	arm_rot_l	elbow_flex_l	pro_sup_l	wrist_flex_l	wrist_dev_l
5	2.43502	1.51589	-0.997861	0.698755	1.5407	0.964724	0.110686	-0.0418085	0.0761422	0.976478	0.0796123	0	0	0.130959	-0.000191464	-0.234942	0.132375	-0.0461198	0	0	-0.164337	0.0395763	0.0804216	0.282725	-0.33872	0.101847	1.64774	1.5708	0	0	0.336133	-0.117926	-0.0176525	1.62637	0.920491	0	0
5.01	2.41088	1.51541	-0.972185	0.697231	1.54466	0.965189	0.118324	-0.0406404	0.0682835	0.98089	0.0871323	0	0	0.126169	0.00142629	-0.2323	0.130354	-0.0435706	0	0	-0.165449	0.0412605	0.0786371	0.287109	-0.34093	0.102978	1.64349	1.5708	0	0	0.34051	-0.116706	-0.0154167	1.6212	0.917925	0	0
5.02	2.38842	1.51433	-0.948404	0.695813	1.54856	0.965701	0.124965	-0.0391385	0.0602417	0.981991	0.0954481	0	0	0.120086	0.00273726	-0.229755	0.126705	-0.0420789	0	0	-0.167032	0.0431152	0.076898	0.291583	-0.343191	0.105231	1.63908	1.5708	0	0	0.344698	-0.115615	-0.013407	1.61597	0.916064	0	0
5.03	2.37031	1.51282	-0.928978	0.694479	1.55239	0.96625	0.130674	-0.0376338	0.0517991	0.979954	0.103416	0	0	0.113361	0.00377614	-0.228105	0.122708	-0.0406634	0	0	-0.169001	0.0448952	0.0751394	0.29653	-0.344939	0.107303	1.63409	1.5708	0	0	0.34891	-0.114659	-0.011551	1.61092	0.914453	0	0
5.04	2.35516	1.51151	-0.912697	0.693223	1.55617	0.966791	0.136203	-0.0364033	0.0432368	0.975106	0.109973	0	0	0.106693	0.00491397	-0.226761	0.118618	-0.0389758	0	0	-0.170771	0.046308	0.0735098	0.301204	-0.346205	0.109161	1.62899	1.5708	0	0	0.353173	-0.113705	-0.010234	1.60606	0.913323	0	0
5.05	2.34193	1.51056	-0.898641	0.69205	1.55988	0.967313	0.141743	-0.0353702	0.0349424	0.967737	0.114898	0	0	0.100251	0.00619076	-0.225423	0.114434	-0.0374133	0	0	-0.172212	0.0472752	0.0722239	0.305517	-0.346964	0.109816	1.62382	1.5708	0	0	0.35757	-0.112834	-0.00861843	1.60121	0.912823	0	0
5.06	2.32539	1.50992	-0.881588	0.690956	1.56352	0.967798	0.147832	-0.0344994	0.026694	0.958652	0.118923	0	0	0.0943847	0.0072454	-0.223721	0.110528	-0.0357542	0	0	-0.173154	0.0481437	0.0712184	0.309981	-0.347399	0.110386	1.61864	1.5708	0	0	0.362102	-0.112198	-0.00582226	1.59627	0.912257	0	0
5.07	2.29921	1.50949	-0.855251	0.689947	1.56709	0.968221	0.154424	-0.0332678	0.0186449	0.947641	0.123672	0	0	0.0895148	0.00771798	-0.22218	0.107276	-0.0340695	0	0	-0.173426	0.0493414	0.0706534	0.314275	-0.347866	0.110454	1.61344	1.5708	0	0	0.366514	-0.111493	-0.00303766	1.59077	0.911555	0	0
5.08	2.26033	1.5093	-0.816492	0.689002	1.57062	0.968569	0.161439	-0.0314615	0.0108854	0.934558	0.128286	0	0	0.0858084	0.00763653	-0.220611	0.104553	-0.0322401	0	0	-0.172784	0.051015	0.07017	0.318595	-0.348225	0.111224	1.60812	1.5708	0	0	0.370179	-0.110693	-0.00118029	1.58535	0.910829	0	0
5.09	2.21373	1.50903	-0.769561	0.68812	1.57409	0.968905	0.16828	-0.0293549	0.00226762	0.919363	0.132678	0	0	0.0827517	0.00705373	-0.218136	0.102127	-0.0302697	0	0	-0.171788	0.0529786	0.0691057	0.322596	-0.348275	0.112648	1.60287	1.5708	0	0	0.373309	-0.110035	-0.000250137	1.5806	0.9106	0	0
5.1	2.16897	1.50856	-0.724381	0.687298	1.57744	0.96929	0.174514	-0.0273963	-0.00700139	0.902193	0.137006	0	0	0.0794045	0.0063451	-0.215778	0.0993117	-0.0285683	0	0	-0.171134	0.0548626	0.0677032	0.327143	-0.348258	0.114753	1.59749	1.5708	0	0	0.376357	-0.109798	0.000462429	1.57675	0.910677	0	0
5.11	2.13714	1.51985	-0.683458	0.685515	1.57944	0.969758	0.190546	-0.0390072	-0.0240744	0.887218	0.141092	0	0	0.091029	0.0132991	-0.2598	0.105349	-0.0260045	0	0	-0.1661	0.0469113	0.0563601	0.333281	-0.344468	0.11421	1.58879	1.5708	0	0	0.38226	-0.111369	0.00186389	1.57136	0.910431	0	0
5.12	2.1388	1.50879	-0.694529	0.685691	1.584	0.970559	0.18343	-0.0279837	-0.0255198	0.8624	0.145087	0	0	0.07641	0.00961812	-0.237312	0.109122	-0.0153435	0	0	-0.172476	0.0547742	0.0652543	0.336597	-0.34717	0.118027	1.58558	1.5708	0	0	0.382692	-0.109984	0.00196253	1.5688	0.910298	0	0
5.13	2.08134	1.50805	-0.63717	0.684975	1.5872	0.970949	0.188722	-0.0256425	-0.0352986	0.840108	0.148188	0	0	0.0732495	0.0084597	-0.236658	0.104746	-0.0147679	0	0	-0.171425	0.0573658	0.0643155	0.341201	-0.347491	0.120401	1.58064	1.5708	0	0	0.385512	-0.109663	0.00214677	1.56478	0.910306	0	0
5.14	2.01886	1.50696	-0.574597	0.684282	1.59029	0.971315	0.193687	-0.0229567	-0.0454977	0.816126	0.150692	0	0	0.0705788	0.00693318	-0.235345	0.100446	-0.014266	0	0	-0.170244	0.0604317	0.0632098	0.345904	-0.347881	0.123258	1.57587	1.5708	0	0	0.388232	-0.109489	0.00270287	1.56083	0.909873	0	0
5.15	1.95287	1.50542	-0.508285	0.683631	1.5933	0.971679	0.198088	-0.01979	-0.0560104	0.790395	0.15316	0	0	0.0684731	0.00489388	-0.233911	0.0966699	-0.0134811	0	0	-0.16898	0.0639873	0.0620011	0.350443	-0.348046	0.125641	1.57105	1.5708	0	0	0.390892	-0.109389	0.00324464	1.5568	0.909329	0	0
5.16	1.88924	1.5032	-0.443952	0.683015	1.59625	0.972074	0.201415	-0.0159764	-0.0667955	0.762965	0.155672	0	0	0.0665858	0.00229043	-0.232251	0.0933957	-0.0126235	0	0	-0.167982	0.0681375	0.060858	0.354648	-0.348875	0.128764	1.56684	1.5708	0	0	0.393702	-0.109016	0.00336297	1.55256	0.908836	0	0
5.17	1.83745	1.50011	-0.391078	0.68242	1.5992	0.972538	0.203143	-0.0116735	-0.0778431	0.734238	0.158373	0	0	0.063958	-0.000763261	-0.23055	0.0900254	-0.011932	0	0	-0.167676	0.0727493	0.0595048	0.358736	-0.349632	0.131531	1.56263	1.5708	0	0	0.396572	-0.108497	0.00302171	1.54878	0.908474	0	0
5.18	1.79765	1.49656	-0.349818	0.681849	1.60214	0.973043	0.203404	-0.00698711	-0.0885878	0.704492	0.161187	0	0	0.0605258	-0.00391162	-0.228586	0.0863385	-0.0114592	0	0	-0.167987	0.0775368	0.0576303	0.362918	-0.350027	0.134634	1.55869	1.5708	0	0	0.399367	-0.108344	0.00277575	1.54552	0.907994	0	0
5.19	1.7637	1.49278	-0.313867	0.681316	1.60509	0.973541	0.202807	-0.00189987	-0.0988556	0.674339	0.164097	0	0	0.0568587	-0.00717013	-0.226096	0.0825347	-0.0110453	0	0	-0.168318	0.0825405	0.0555238	0.366955	-0.350504	0.137256	1.55497	1.5708	0	0	0.402117	-0.108399	0.00296939	1.5419	0.906939	0	0
5.2	1.73637	1.48894	-0.284072	0.680817	1.60804	0.974044	0.20147	0.00334825	-0.108636	0.644207	0.166643	0	0	0.0529199	-0.0103653	-0.223153	0.0786152	-0.0108161	0	0	-0.168701	0.0875609	0.0531813	0.370585	-0.35085	0.139321	1.5514	1.5708	0	0	0.404783	-0.108615	0.00352689	1.53785	0.905911	0	0
5.21	1.71494	1.48478	-0.259355	0.680359	1.61098	0.974575	0.199198	0.00909896	-0.118044	0.61424	0.168237	0	0	0.0487863	-0.0138463	-0.219599	0.0748606	-0.0105225	0	0	-0.16916	0.0928209	0.050045	0.373927	-0.350783	0.141782	1.54735	1.5708	0	0	0.407182	-0.109142	0.00404914	1.53392	0.905157	0	0
5.22	1.69769	1.48018	-0.238305	0.679967	1.61393	0.97513	0.196334	0.0154308	-0.1268	0.584974	0.168826	0	0	0.0445058	-0.0178367	-0.216099	0.0714738	-0.00985065	0	0	-0.169631	0.0985718	0.0466684	0.376814	-0.351022	0.145568	1.5432	1.5708	0	0	0.409153	-0.109354	0.00379829	1.53011	0.904548	0	0
5.23	1.68668	1.47544	-0.223123	0.67961	1.61691	0.975703	0.192812	0.0217696	-0.13518	0.556839	0.168385	0	0	0.0395292	-0.0218818	-0.212329	0.0675406	-0.00952766	0	0	-0.170179	0.104404	0.0433759	0.379166	-0.351543	0.147662	1.54	1.5708	0	0	0.411122	-0.10952	0.00409446	1.52591	0.903961	0	0
5.24	1.67824	1.47083	-0.210077	0.679285	1.61991	0.976261	0.189036	0.0279986	-0.142787	0.529971	0.167135	0	0	0.034568	-0.0258811	-0.20827	0.0635988	-0.00938317	0	0	-0.170517	0.110089	0.0398939	0.381068	-0.351539	0.146481	1.53708	1.5708	0	0	0.413147	-0.109987	0.00507924	1.52156	0.903099	0	0
5.25	1.67032	1.46634	-0.197335	0.678998	1.62289	0.976797	0.185461	0.0341105	-0.149475	0.50495	0.164611	0	0	0.0299943	-0.0299321	-0.204268	0.0601124	-0.00910017	0	0	-0.170508	0.115685	0.0364588	0.38181	-0.351505	0.14587	1.53486	1.5708	0	0	0.415233	-0.11045	0.00631395	1.51696	0.902102	0	0
5.26	1.67778	1.46115	-0.200199	0.678682	1.62575	0.977352	0.180369	0.0406039	-0.15492	0.481749	0.160429	0	0	0.023998	-0.0345048	-0.200747	0.0573326	-0.00807252	0	0	-0.172627	0.12331	0.0326317	0.398032	-0.351543	0.186444	1.56555	1.5708	0	0	0.416912	-0.111249	0.00584693	1.51283	0.900581	0	0
5.27	1.66686	1.45722	-0.184979	0.678551	1.6286	0.97783	0.177809	0.0465722	-0.15827	0.460275	0.154844	0	0	0.020864	-0.0385114	-0.197422	0.0556243	-0.00706394	0	0	-0.171863	0.128392	0.0302589	0.398535	-0.352093	0.187243	1.5635	1.5708	0	0	0.419211	-0.111592	0.00778129	1.50794	0.89918	0	0
5.28	1.65817	1.45326	-0.172316	0.678466	1.63142	0.97831	0.175001	0.0526653	-0.160156	0.440136	0.148196	0	0	0.0176221	-0.0425387	-0.194689	0.0539381	-0.00612537	0	0	-0.17121	0.13356	0.028503	0.398739	-0.353008	0.188308	1.56218	1.5708	0	0	0.421601	-0.111627	0.00959124	1.50261	0.897559	0	0
5.29	1.64874	1.44968	-0.159372	0.678461	1.63416	0.97874	0.1731	0.0583991	-0.160696	0.422889	0.141516	0	0	0.0146329	-0.046244	-0.192268	0.0520821	-0.00533302	0	0	-0.170316	0.138295	0.0272346	0.398755	-0.353481	0.188598	1.56093	1.5708	0	0	0.42407	-0.111545	0.0109796	1.49718	0.895835	0	0
5.3	1.63788	1.44658	-0.145519	0.67854	1.63683	0.979109	0.172189	0.0636853	-0.15993	0.408677	0.134937	0	0	0.011926	-0.0495203	-0.189671	0.0500382	-0.00475023	0	0	-0.169076	0.142513	0.0263439	0.398754	-0.35352	0.188315	1.55958	1.5708	0	0	0.426592	-0.111502	0.012147	1.4916	0.894258	0	0
5.31	1.62796	1.44404	-0.133343	0.678697	1.63949	0.979444	0.171873	0.0682457	-0.158117	0.397512	0.12867	0	0	0.00926607	-0.0522489	-0.187877	0.0482464	-0.0039593	0	0	-0.167702	0.146076	0.026205	0.398532	-0.353777	0.18802	1.55861	1.5708	0	0	0.429262	-0.111388	0.0135291	1.48579	0.89265	0	0
5.32	1.61961	1.44194	-0.122786	0.678954	1.64214	0.979755	0.17179	0.072142	-0.155685	0.388609	0.122386	0	0	0.00663274	-0.054604	-0.186223	0.046742	-0.00308427	0	0	-0.166286	0.149094	0.0262645	0.398305	-0.354404	0.188419	1.55766	1.5708	0	0	0.431993	-0.111371	0.0154215	1.47992	0.891345	0	0
5.33	1.61321	1.44045	-0.114114	0.679283	1.6448	0.980011	0.171694	0.0751615	-0.153926	0.381934	0.116424	0	0	0.00387446	-0.0563278	-0.184395	0.0452754	-0.0022333	0	0	-0.164761	0.151392	0.0261701	0.398307	-0.355539	0.189796	1.55659	1.5708	0	0	0.43455	-0.111627	0.0176383	1.47408	0.88999	0	0
